<svg xmlns="http://www.w3.org/2000/svg" xmlns:xlink="http://www.w3.org/1999/xlink" width="1920" zoomAndPan="magnify" viewBox="0 0 1440 809.999993" height="1080" preserveAspectRatio="xMidYMid meet" version="1.0"><defs><clipPath id="80de28a908"><path d="M 687.289062 372.042969 L 752.507812 372.042969 L 752.507812 429 L 687.289062 429 Z M 687.289062 372.042969 " clip-rule="nonzero"/></clipPath><clipPath id="33d6657b74"><path d="M 687.289062 428 L 710 428 L 710 438.042969 L 687.289062 438.042969 Z M 687.289062 428 " clip-rule="nonzero"/></clipPath><clipPath id="30cec69ae0"><path d="M 712 387 L 752.507812 387 L 752.507812 438.042969 L 712 438.042969 Z M 712 387 " clip-rule="nonzero"/></clipPath><clipPath id="77d19bd078"><path d="M 687.289062 394 L 724 394 L 724 433 L 687.289062 433 Z M 687.289062 394 " clip-rule="nonzero"/></clipPath></defs><rect x="-144" width="1728" fill="#ffffff" y="-80.999999" height="971.999992" fill-opacity="1"/><g clip-path="url(#80de28a908)"><path fill="#f89ac3" d="M 750.589844 413.632812 C 749.546875 413.632812 748.714844 412.785156 748.714844 411.753906 L 748.714844 380.527344 C 748.714844 377.921875 746.589844 375.808594 743.992188 375.808594 L 695.773438 375.808594 C 693.167969 375.808594 691.054688 377.933594 691.054688 380.527344 L 691.054688 411.742188 C 691.054688 412.785156 690.207031 413.621094 689.175781 413.621094 C 688.148438 413.621094 687.285156 412.785156 687.285156 411.742188 L 687.285156 380.527344 C 687.285156 375.847656 691.09375 372.042969 695.773438 372.042969 L 743.992188 372.042969 C 748.675781 372.042969 752.480469 375.847656 752.480469 380.527344 L 752.480469 411.742188 C 752.480469 412.785156 751.632812 413.632812 750.589844 413.632812 Z M 744.175781 424.800781 L 744.175781 414.492188 C 744.175781 412.589844 742.625 411.039062 740.71875 411.039062 L 719.023438 411.039062 C 717.121094 411.039062 715.566406 412.589844 715.566406 414.492188 L 715.566406 424.800781 C 715.566406 426.703125 717.121094 428.253906 719.023438 428.253906 L 740.734375 428.253906 C 742.625 428.242188 744.175781 426.703125 744.175781 424.800781 Z M 740.71875 414.050781 C 740.957031 414.050781 741.164062 414.246094 741.164062 414.492188 L 741.164062 424.800781 C 741.164062 425.035156 740.96875 425.246094 740.71875 425.246094 L 719.023438 425.246094 C 718.789062 425.246094 718.582031 425.050781 718.582031 424.800781 L 718.582031 414.503906 C 718.582031 414.269531 718.777344 414.0625 719.023438 414.0625 Z M 740.71875 414.050781 " fill-opacity="1" fill-rule="nonzero"/></g><path fill="#0f1633" d="M 697.886719 396.832031 C 697.054688 396.832031 696.386719 396.15625 696.386719 395.332031 L 696.386719 384.136719 C 696.386719 382.273438 697.914062 380.75 699.777344 380.75 L 740.003906 380.75 C 741.867188 380.75 743.394531 382.273438 743.394531 384.136719 L 743.394531 389.378906 C 743.394531 390.210938 742.714844 390.875 741.894531 390.875 C 741.058594 390.875 740.394531 390.199219 740.394531 389.378906 L 740.394531 384.136719 C 740.394531 383.929688 740.226562 383.761719 740.015625 383.761719 L 699.765625 383.761719 C 699.554688 383.761719 699.386719 383.929688 699.386719 384.136719 L 699.386719 395.320312 C 699.386719 396.15625 698.707031 396.832031 697.886719 396.832031 Z M 697.886719 396.832031 " fill-opacity="1" fill-rule="nonzero"/><g clip-path="url(#33d6657b74)"><path fill="#f1aa07" d="M 707.652344 438.042969 L 695.1875 438.042969 C 690.832031 438.042969 687.285156 434.5 687.285156 430.144531 C 687.285156 429.101562 688.132812 428.269531 689.164062 428.269531 C 690.195312 428.269531 691.042969 429.117188 691.042969 430.144531 C 691.042969 432.425781 692.894531 434.289062 695.1875 434.289062 L 707.652344 434.289062 C 708.695312 434.289062 709.53125 435.136719 709.53125 436.167969 C 709.53125 437.195312 708.710938 438.042969 707.652344 438.042969 Z M 707.652344 438.042969 " fill-opacity="1" fill-rule="nonzero"/></g><g clip-path="url(#30cec69ae0)"><path fill="#f95e28" d="M 744.566406 438.042969 L 714.5 438.042969 C 713.457031 438.042969 712.621094 437.195312 712.621094 436.167969 C 712.621094 435.136719 713.46875 434.289062 714.5 434.289062 L 744.578125 434.289062 C 746.863281 434.289062 748.726562 432.4375 748.726562 430.144531 L 748.726562 393.523438 C 748.726562 392.414062 747.8125 391.503906 746.707031 391.503906 L 735.140625 391.503906 C 734.539062 391.503906 733.980469 391.761719 733.601562 392.21875 L 729.429688 397.144531 C 728.75 397.941406 727.5625 398.03125 726.78125 397.367188 C 725.988281 396.6875 725.894531 395.503906 726.558594 394.722656 L 730.734375 389.792969 C 731.828125 388.492188 733.445312 387.75 735.152344 387.75 L 746.691406 387.75 C 749.886719 387.75 752.46875 390.34375 752.46875 393.523438 L 752.46875 430.132812 C 752.480469 434.5 748.921875 438.042969 744.566406 438.042969 Z M 744.566406 438.042969 " fill-opacity="1" fill-rule="nonzero"/></g><g clip-path="url(#77d19bd078)"><path fill="#006fbf" d="M 689.164062 432.023438 C 688.121094 432.023438 687.285156 431.175781 687.285156 430.144531 L 687.285156 401.953125 C 687.285156 397.601562 690.832031 394.058594 695.1875 394.058594 L 721.605469 394.058594 C 722.648438 394.058594 723.484375 394.902344 723.484375 395.933594 C 723.484375 396.964844 722.636719 397.808594 721.605469 397.808594 L 695.1875 397.808594 C 692.90625 397.808594 691.042969 399.660156 691.042969 401.953125 L 691.042969 430.132812 C 691.054688 431.175781 690.207031 432.023438 689.164062 432.023438 Z M 689.164062 432.023438 " fill-opacity="1" fill-rule="nonzero"/></g></svg>